<svg width="1104" height="643" viewBox="0 0 1104 643" fill="none" xmlns="http://www.w3.org/2000/svg">
<path d="M1104 556.05C1104 556.812 1103.94 557.573 1103.82 558.325C1096.15 605.3 852.024 643 552 643C251.976 643 7.85043 605.3 0.182566 558.325C0.0626985 557.573 0.00165986 556.812 0 556.05C0 555.835 -3.60463e-06 555.61 0.021475 555.395C0.021475 555.277 0.0322166 555.169 0.0322166 555.051C0.0410872 555.009 0.0446965 554.966 0.0429582 554.923C0.0859154 554.44 0.150351 553.978 0.236266 553.506C3.73728 534.301 46.7911 516.654 117.015 502.516C174.449 490.955 250.065 481.734 337.096 475.937C403.143 471.536 475.762 469.099 552 469.099C613.343 469.099 672.345 470.677 727.459 473.576H727.48C739.014 474.188 750.376 474.857 761.567 475.583C838.17 480.542 906.15 488.132 960.92 497.632C994.609 503.482 1023.32 510.063 1045.96 517.19H1045.98C1080.84 528.172 1101.39 540.485 1103.76 553.506C1103.85 553.978 1103.91 554.44 1103.96 554.923C1103.96 554.966 1103.96 555.009 1103.97 555.051C1103.97 555.169 1103.98 555.277 1103.98 555.395C1104 555.61 1104 555.835 1104 556.05Z" fill="#3B5B6D"/>
<path opacity="0.1" d="M553.074 607.579C650.938 607.579 730.272 596.044 730.272 581.816C730.272 567.587 650.938 556.052 553.074 556.052C455.21 556.052 375.875 567.587 375.875 581.816C375.875 596.044 455.21 607.579 553.074 607.579Z" fill="black"/>
<path opacity="0.1" d="M1045.96 517.19C1039.77 518.962 1032.79 520.604 1025.13 522.107C993.6 528.311 950.578 532.122 903.207 532.122C850.284 532.122 802.849 527.367 770.706 519.842C744.03 513.594 727.878 505.468 727.878 496.548C727.878 488.711 740.378 481.455 761.567 475.583C838.17 480.543 906.15 488.132 960.92 497.632C994.609 503.482 1023.32 510.063 1045.96 517.19Z" fill="black"/>
<path opacity="0.1" d="M571.331 505.329C571.331 521.57 469.393 534.742 343.658 534.742C217.922 534.742 115.984 521.57 115.984 505.329C116.012 504.304 116.374 503.316 117.015 502.516C174.449 490.955 250.065 481.734 337.096 475.937C339.276 475.927 341.463 475.923 343.658 475.927C469.393 475.927 571.331 489.087 571.331 505.329Z" fill="black"/>
<path d="M524.242 92.3544C512.388 96.3562 501.648 105.716 499.22 117.986C498.095 123.673 498.785 129.585 497.838 135.305C495.641 148.571 485.224 158.702 475.616 168.112C466.007 177.522 456.085 188.456 455.383 201.884C454.615 216.588 465.284 230.362 463.438 244.97C461.293 261.941 443.36 272.938 438.927 289.46C435.967 300.492 439.594 312.376 445.562 322.117C456.934 340.68 476.373 353.281 497.073 360.037C517.774 366.793 539.82 368.214 561.595 368.442C588.108 368.72 616.895 366.445 636.815 348.954C648.194 338.873 655.34 324.866 656.821 309.74C658.713 289.48 650.253 268.545 656.089 249.051C659.761 236.782 668.971 225.577 667.596 212.845C666.253 200.396 655.375 191.571 647.913 181.514C640.945 172.124 636.717 161.035 632.574 150.102L618.396 112.696C615.609 105.342 612.548 97.6084 606.337 92.7819C594.71 83.7467 576.013 85.522 562.416 87.3855C549.803 89.1142 536.372 88.2598 524.242 92.3544Z" fill="#2F2E41"/>
<path d="M528.682 201.32C528.682 201.32 534.967 221.737 487.831 245.295C440.694 268.852 492.544 293.981 492.544 293.981L547.537 306.545C547.537 306.545 604.101 298.693 610.386 289.269C616.671 279.846 627.669 248.436 624.527 243.724C622.176 240.369 619.548 237.217 616.671 234.301C616.671 234.301 578.961 228.019 580.533 210.743C582.104 193.467 528.682 201.32 528.682 201.32Z" fill="#DDB8A3"/>
<path opacity="0.1" d="M528.682 201.32C528.682 201.32 534.967 221.737 487.831 245.295C440.694 268.852 492.544 293.981 492.544 293.981L547.537 306.545C547.537 306.545 604.101 298.693 610.386 289.269C616.671 279.846 627.669 248.436 624.527 243.724C622.176 240.369 619.548 237.217 616.671 234.301C616.671 234.301 578.961 228.019 580.533 210.743C582.104 193.467 528.682 201.32 528.682 201.32Z" fill="black"/>
<path d="M559.321 233.516C587.09 233.516 609.6 211.015 609.6 183.259C609.6 155.502 587.09 133.002 559.321 133.002C531.553 133.002 509.042 155.502 509.042 183.259C509.042 211.015 531.553 233.516 559.321 233.516Z" fill="#DDB8A3"/>
<path d="M553.822 289.269C553.822 289.269 493.27 284.843 492.122 243.081C492.122 243.081 470.548 240.583 464.263 246.865C457.978 253.147 437.552 257.859 437.552 273.564C437.552 289.269 472.119 336.385 472.119 336.385C472.119 336.385 490.973 399.206 483.117 410.2C475.261 421.194 473.69 449.463 473.69 449.463C473.69 449.463 552.251 443.181 564.82 449.463C577.39 455.746 627.669 455.746 630.812 449.463C633.954 443.181 627.669 364.655 627.669 364.655C627.669 364.655 641.81 345.808 638.668 323.821L676.377 279.846C676.377 279.846 662.236 237.442 640.239 237.442C640.239 237.442 610.386 229.589 609.6 233.516C608.815 237.442 624.527 281.417 553.822 289.269Z" fill="#E28229"/>
<path d="M412.412 427.476C412.412 427.476 426.553 449.464 462.691 454.175C498.829 458.887 505.114 446.322 501.972 443.181C498.829 440.04 461.12 425.906 461.12 425.906L439.123 408.63L412.412 427.476Z" fill="#DDB8A3"/>
<path d="M670.092 408.63L629.24 432.188C629.24 432.188 575.819 429.047 596.245 444.752C616.671 460.457 654.38 454.175 654.38 454.175L690.518 436.899L670.092 408.63Z" fill="#DDB8A3"/>
<path d="M465.834 449.464C465.834 449.464 428.125 542.125 473.69 556.26C519.255 570.394 644.953 567.253 673.235 548.407C701.516 529.561 709.373 504.432 704.659 496.579C699.945 488.727 668.521 466.739 646.524 465.169C624.527 463.598 465.834 449.464 465.834 449.464Z" fill="#2F2E41"/>
<path opacity="0.05" d="M465.834 449.464C465.834 449.464 428.125 542.125 473.69 556.26C519.255 570.394 644.953 567.253 673.235 548.407C701.516 529.561 709.373 504.432 704.659 496.579C699.945 488.727 668.521 466.739 646.524 465.169C624.527 463.598 465.834 449.464 465.834 449.464Z" fill="black"/>
<path d="M643.832 455.22C643.832 455.22 776.935 407.059 775.364 465.169C773.792 523.279 690.518 538.984 690.518 538.984L665.378 542.125L527.111 546.836C527.111 546.836 531.825 521.708 520.826 518.567C520.826 518.567 556.964 509.144 558.536 507.573C560.107 506.003 649.666 474.592 655.951 473.022C662.236 471.451 681.091 458.887 695.232 460.457C695.232 460.457 710.944 447.893 728.227 451.034L679.519 454.175L643.832 455.22Z" fill="#2F2E41"/>
<path opacity="0.1" d="M643.832 455.22C643.832 455.22 776.935 407.059 775.364 465.169C773.792 523.279 690.518 538.984 690.518 538.984L665.378 542.125L527.111 546.836C527.111 546.836 531.825 521.708 520.826 518.567C520.826 518.567 556.964 509.144 558.536 507.573C560.107 506.003 649.666 474.592 655.951 473.022C662.236 471.451 681.091 458.887 695.232 460.457C695.232 460.457 710.944 447.893 728.227 451.034L679.519 454.175L643.832 455.22Z" fill="black"/>
<path d="M620.316 463.019L637.098 501.291L739.226 465.168L747.083 444.753L720.371 440.039L666.671 449.464L643.381 455.745L620.316 463.019Z" fill="#2F2E41"/>
<path opacity="0.1" d="M620.316 463.019L637.098 501.291L739.226 465.168L747.083 444.753L720.371 440.039L666.671 449.464L643.381 455.745L620.316 463.019Z" fill="black"/>
<path d="M402.985 509.144C402.985 509.144 432.838 546.836 467.405 556.26C501.972 565.683 520.826 553.118 520.826 553.118L509.828 509.144L505.114 480.874L484.688 466.739L443.837 447.893L395.129 432.188C395.129 432.188 374.703 429.047 374.703 432.188C374.703 435.329 393.558 482.445 393.558 482.445L402.985 509.144Z" fill="#2F2E41"/>
<path d="M439.123 529.561C439.123 529.561 445.408 575.106 453.264 578.247C461.12 581.388 484.689 575.106 490.973 571.965C497.258 568.824 518.621 554.332 518.621 554.332C518.621 554.332 443.837 526.42 439.123 529.561Z" fill="#D3D3D3"/>
<path d="M582.105 534.273L611.958 538.984L608.815 575.105L567.175 564.997L582.105 534.273Z" fill="#DDB8A3"/>
<path d="M600.809 544.325C600.809 544.325 586.818 560.971 600.959 570.395L610.386 578.247C610.386 578.247 641.81 584.529 644.953 587.67C648.095 590.811 660.665 582.959 660.665 582.959C660.665 582.959 662.236 535.843 660.665 532.702C659.094 529.561 640.239 526.42 638.668 529.561C637.097 532.702 618.242 537.413 607.243 534.272L600.809 544.325Z" fill="#D3D3D3"/>
<path d="M475.261 460.457C475.261 460.457 365.276 396.066 347.992 419.623C330.709 443.181 311.854 476.163 362.133 501.291C412.412 526.42 569.534 578.247 569.534 578.247C569.534 578.247 593.102 542.125 593.102 532.702C593.102 532.702 509.828 495.009 495.687 491.868C481.546 488.727 424.982 452.605 417.126 449.464C409.27 446.323 398.271 436.899 398.271 436.899L475.261 460.457Z" fill="#2F2E41"/>
<path d="M440.891 263.13L437.984 268.215C437.984 268.215 423.411 306.545 421.84 326.962C420.268 347.379 401.414 410.2 402.985 418.053C404.556 425.906 406.127 432.188 415.555 440.04C415.555 440.04 428.125 411.771 450.122 416.482L476.832 319.109L440.891 263.13Z" fill="black"/>
<path d="M670.549 266.035L673.456 272.574L676.377 279.846C676.377 279.846 684.233 298.693 684.233 303.404C684.233 308.116 699.945 377.219 701.517 380.36C703.088 383.501 709.373 422.764 701.517 432.188C693.66 441.611 679.52 447.893 679.52 447.893C679.52 447.893 688.947 414.912 659.094 413.341L662.236 400.777L633.954 306.545L670.549 266.035Z" fill="black"/>
<path d="M446.979 373.84V456.566C446.979 461.79 449.035 466.804 452.703 470.525C456.371 474.246 461.357 476.375 466.582 476.453L639.663 479.016C644.858 479.093 649.877 477.136 653.648 473.562C657.418 469.989 659.641 465.083 659.84 459.894L663.024 377.158C663.126 374.508 662.697 371.865 661.761 369.383C660.826 366.901 659.404 364.631 657.578 362.707C655.752 360.783 653.56 359.243 651.13 358.178C648.701 357.114 646.082 356.545 643.429 356.507L467.165 353.953C464.528 353.915 461.91 354.401 459.463 355.384C457.015 356.366 454.788 357.825 452.909 359.675C451.031 361.526 449.54 363.731 448.522 366.163C447.504 368.594 446.979 371.204 446.979 373.84V373.84Z" fill="#3F3D56"/>
<path d="M562.27 181.647C592.16 181.647 616.39 168.606 616.39 152.518C616.39 136.431 592.16 123.389 562.27 123.389C532.38 123.389 508.15 136.431 508.15 152.518C508.15 168.606 532.38 181.647 562.27 181.647Z" fill="#2F2E41"/>
<path d="M553.036 429.832C559.978 429.832 565.606 424.207 565.606 417.268C565.606 410.329 559.978 404.703 553.036 404.703C546.094 404.703 540.467 410.329 540.467 417.268C540.467 424.207 546.094 429.832 553.036 429.832Z" fill="#F2F2F2"/>
</svg>
